<svg width="553" height="119" viewBox="0 0 553 119" fill="none" xmlns="http://www.w3.org/2000/svg">
<g clip-path="url(#clip0_265_882)">
<rect width="553" height="119" rx="10" fill="#60009B"/>
<path d="M122.811 54.1434L119.771 66.3039H131.456L129.271 75.2343H117.586L113.215 92.905H103.43L107.8 75.2343H96.9696L92.5995 93H82.814L87.1842 75.2343H75.2137L77.3988 66.3039H89.3693L92.4094 54.1434H80.5339L82.529 46.163H94.4045L99.2497 26.4972H109.035L104.19 46.163H115.02L119.866 26.4022H129.651L124.806 46.163H136.491L134.591 54.1434H122.811ZM113.025 54.1434H102.195L99.1547 66.3039H109.985L113.025 54.1434ZM178.712 77.1343H157.242L154.486 93H139.761L152.681 26.4972H183.463L196.383 93H181.468L178.712 77.1343ZM176.622 65.4488L171.777 38.0877H164.177L159.332 65.4488H176.622ZM205.898 43.5979H218.154L218.914 49.3932C219.041 49.9632 219.262 50.2482 219.579 50.2482C219.832 50.2482 220.181 50.0265 220.624 49.5832C222.714 47.4931 224.868 45.8147 227.084 44.548C229.364 43.2812 232.025 42.6479 235.065 42.6479C235.698 42.6479 236.205 42.7112 236.585 42.8379V55.6634C233.671 55.7268 230.663 56.1701 227.559 56.9935C224.456 57.7535 221.796 58.8619 219.579 60.3186V93H205.898V43.5979ZM266.216 93.95C260.453 93.95 256.368 92.4616 253.961 89.4849C251.554 86.5081 250.351 82.0745 250.351 76.1843V54.0484H241.705V43.5979H250.351V32.4824L264.031 28.4923V43.5979H278.092V54.0484H264.031V75.7093C264.031 78.3694 264.475 80.1745 265.361 81.1245C266.311 82.0745 267.705 82.5496 269.541 82.5496C271.062 82.5496 272.677 82.4229 274.387 82.1695C276.097 81.8529 277.458 81.5045 278.472 81.1245V92.05C276.888 92.5566 274.988 93 272.772 93.38C270.555 93.76 268.37 93.95 266.216 93.95ZM287.43 22.697H302.06V36.5676H287.43V22.697ZM287.905 43.5979H301.585V93H287.905V43.5979ZM335.165 93.95C327.628 93.95 321.833 91.8916 317.78 87.7748C313.726 83.5946 311.699 76.8493 311.699 67.5389C311.699 58.6719 313.853 52.3066 318.16 48.4431C322.53 44.5796 328.61 42.6479 336.401 42.6479C341.467 42.6479 345.616 43.4079 348.846 44.928V56.7085C345.046 54.9351 341.309 54.0484 337.636 54.0484C333.645 54.0484 330.7 55.0617 328.8 57.0885C326.9 59.0519 325.95 62.5354 325.95 67.5389C325.95 71.6558 326.425 74.8226 327.375 77.0393C328.388 79.1928 329.75 80.6495 331.46 81.4095C333.234 82.1695 335.45 82.5496 338.111 82.5496C341.531 82.5496 345.299 81.6312 349.416 79.7944V91.2899C348.023 92.05 346.091 92.6833 343.621 93.19C341.214 93.6967 338.396 93.95 335.165 93.95ZM372.262 93.95C368.398 93.95 365.263 92.6833 362.856 90.1499C360.449 87.6164 359.246 83.8479 359.246 78.8444V23.6471H372.927V78.2744C372.927 81.4412 374.32 83.0246 377.107 83.0246C378.627 83.0246 380.274 82.8346 382.047 82.4546V92.715C379.577 93.5384 376.315 93.95 372.262 93.95ZM431.271 72.4791H401.63C401.946 76.216 403.055 78.8444 404.955 80.3645C406.918 81.8212 409.927 82.5496 413.98 82.5496C416.577 82.5496 419.3 82.2329 422.151 81.5995C425.064 80.9028 427.661 80.1111 429.941 79.2244V90.6249C428.104 91.5116 425.666 92.3033 422.626 93C419.649 93.6334 416.355 93.95 412.745 93.95C404.385 93.95 398.241 91.7333 394.314 87.2998C390.451 82.8029 388.519 76.1843 388.519 67.4439C388.519 50.9132 395.676 42.6479 409.99 42.6479C415.374 42.6479 419.617 43.5979 422.721 45.498C425.887 47.3347 428.104 50.0582 429.371 53.6683C430.638 57.2152 431.271 61.7437 431.271 67.2539V72.4791ZM418.16 62.1237C418.16 59.2736 417.59 57.1202 416.45 55.6634C415.31 54.1434 413.157 53.3833 409.99 53.3833C407.077 53.3833 404.986 54.1434 403.72 55.6634C402.516 57.1835 401.82 59.8119 401.63 63.5488H418.16V62.1237ZM456.844 93.95C450.574 93.95 444.937 92.8417 439.933 90.6249V78.4644C442.973 79.9211 445.697 80.9662 448.104 81.5995C450.51 82.2329 453.234 82.5496 456.274 82.5496C459.124 82.5496 460.993 82.2645 461.879 81.6945C462.766 81.0612 463.209 80.1111 463.209 78.8444C463.209 77.831 462.861 77.0393 462.164 76.4693C461.468 75.8993 459.979 75.1709 457.699 74.2842L451.049 71.8141C447.059 70.3574 444.177 68.5523 442.403 66.3989C440.693 64.1821 439.838 61.047 439.838 56.9935C439.838 51.9266 441.327 48.2848 444.304 46.068C447.344 43.7879 452.379 42.6479 459.409 42.6479C462.259 42.6479 464.951 42.9012 467.485 43.4079C470.081 43.8513 471.981 44.3579 473.185 44.928V56.6135C471.791 55.8534 469.733 55.1884 467.01 54.6184C464.286 53.985 461.499 53.6683 458.649 53.6683C456.242 53.6683 454.532 53.9217 453.519 54.4284C452.569 54.9351 452.094 55.7901 452.094 56.9935C452.094 58.0069 452.411 58.7669 453.044 59.2736C453.677 59.7803 454.691 60.3186 456.084 60.8886L463.304 63.5488C466.471 64.7521 468.91 65.9872 470.62 67.2539C472.393 68.4573 473.66 69.9457 474.42 71.7191C475.18 73.4292 475.56 75.6776 475.56 78.4644C475.56 83.9113 474.071 87.8698 471.095 90.3399C468.118 92.7467 463.368 93.95 456.844 93.95Z" fill="white"/>
</g>
<defs>
<clipPath id="clip0_265_882">
<rect width="553" height="119" rx="10" fill="white"/>
</clipPath>
</defs>
</svg>
