<svg width="553" height="119" viewBox="0 0 553 119" fill="none" xmlns="http://www.w3.org/2000/svg">
<g clip-path="url(#clip0_265_884)">
<rect width="553" height="119" rx="10" fill="#00315F"/>
<path d="M148.742 54.1434L145.702 66.3039H157.387L155.202 75.2343H143.517L139.147 92.905H129.361L133.731 75.2343H122.901L118.531 93H108.745L113.115 75.2343H101.145L103.33 66.3039H115.301L118.341 54.1434H106.465L108.46 46.163H120.336L125.181 26.4972H134.966L130.121 46.163H140.952L145.797 26.4022H155.582L150.737 46.163H162.423L160.523 54.1434H148.742ZM138.957 54.1434H128.126L125.086 66.3039H135.916L138.957 54.1434ZM163.602 26.4972H178.518L192.768 76.5643L206.829 26.4972H221.554L200.179 93H185.168L163.602 26.4972ZM228.099 22.697H242.729V36.5676H228.099V22.697ZM228.574 43.5979H242.254V93H228.574V43.5979ZM270.799 93.95C265.162 93.95 260.665 92.0183 257.309 88.1548C254.015 84.228 252.368 77.4827 252.368 67.9189C252.368 58.4185 254.268 51.8316 258.069 48.1581C261.932 44.4846 266.967 42.6479 273.174 42.6479C275.074 42.6479 276.974 42.9329 278.874 43.5029C280.775 44.0096 282.485 44.738 284.005 45.688V23.6471H297.685V93H285.145L284.67 89.2948C284.606 88.7248 284.416 88.4398 284.1 88.4398C283.846 88.4398 283.561 88.5981 283.245 88.9148C281.915 90.2449 280.141 91.4166 277.924 92.43C275.708 93.4434 273.333 93.95 270.799 93.95ZM275.264 82.5496C276.784 82.5496 278.336 82.2329 279.92 81.5995C281.503 80.9028 282.865 80.0478 284.005 79.0344V55.4734C282.738 55.0301 281.503 54.6817 280.3 54.4284C279.096 54.175 277.608 54.0484 275.834 54.0484C273.554 54.0484 271.749 54.3967 270.419 55.0934C269.152 55.7901 268.202 57.1518 267.569 59.1786C266.936 61.142 266.619 64.0554 266.619 67.9189C266.619 71.8458 266.936 74.8859 267.569 77.0393C268.202 79.1294 269.121 80.5861 270.324 81.4095C271.591 82.1695 273.238 82.5496 275.264 82.5496ZM350.879 72.4791H321.238C321.555 76.216 322.663 78.8444 324.563 80.3645C326.527 81.8212 329.535 82.5496 333.589 82.5496C336.185 82.5496 338.909 82.2329 341.759 81.5995C344.672 80.9028 347.269 80.1111 349.549 79.2244V90.6249C347.713 91.5116 345.274 92.3033 342.234 93C339.257 93.6334 335.964 93.95 332.354 93.95C323.993 93.95 317.85 91.7333 313.923 87.2998C310.059 82.8029 308.128 76.1843 308.128 67.4439C308.128 50.9132 315.285 42.6479 329.598 42.6479C334.982 42.6479 339.226 43.5979 342.329 45.498C345.496 47.3347 347.713 50.0582 348.979 53.6683C350.246 57.2152 350.879 61.7437 350.879 67.2539V72.4791ZM337.769 62.1237C337.769 59.2736 337.199 57.1202 336.059 55.6634C334.919 54.1434 332.765 53.3833 329.598 53.3833C326.685 53.3833 324.595 54.1434 323.328 55.6634C322.125 57.1835 321.428 59.8119 321.238 63.5488H337.769V62.1237ZM382.058 93.95C376.864 93.95 372.557 93.1583 369.137 91.5749C365.78 89.9915 363.215 87.3314 361.442 83.5946C359.732 79.7944 358.877 74.6959 358.877 68.299C358.877 61.902 359.732 56.8351 361.442 53.0983C363.215 49.2982 365.78 46.6064 369.137 45.023C372.557 43.4396 376.864 42.6479 382.058 42.6479C387.251 42.6479 391.526 43.4396 394.883 45.023C398.303 46.6064 400.9 49.2982 402.674 53.0983C404.447 56.8351 405.334 61.902 405.334 68.299C405.334 74.6959 404.447 79.7944 402.674 83.5946C400.9 87.3314 398.303 89.9915 394.883 91.5749C391.526 93.1583 387.251 93.95 382.058 93.95ZM382.058 83.0246C384.275 83.0246 386.016 82.6129 387.283 81.7895C388.613 80.9662 389.563 79.5094 390.133 77.4193C390.766 75.2659 391.083 72.2258 391.083 68.299C391.083 64.3721 390.766 61.3637 390.133 59.2736C389.563 57.1202 388.613 55.6318 387.283 54.8084C386.016 53.985 384.275 53.5733 382.058 53.5733C379.841 53.5733 378.099 53.985 376.833 54.8084C375.566 55.6318 374.616 57.1202 373.982 59.2736C373.412 61.3637 373.127 64.3721 373.127 68.299C373.127 72.2258 373.412 75.2659 373.982 77.4193C374.616 79.5094 375.566 80.9662 376.833 81.7895C378.099 82.6129 379.841 83.0246 382.058 83.0246ZM430.913 93.95C424.643 93.95 419.006 92.8417 414.002 90.6249V78.4644C417.042 79.9211 419.766 80.9662 422.172 81.5995C424.579 82.2329 427.303 82.5496 430.343 82.5496C433.193 82.5496 435.061 82.2645 435.948 81.6945C436.835 81.0612 437.278 80.1111 437.278 78.8444C437.278 77.831 436.93 77.0393 436.233 76.4693C435.536 75.8993 434.048 75.1709 431.768 74.2842L425.118 71.8141C421.127 70.3574 418.246 68.5523 416.472 66.3989C414.762 64.1821 413.907 61.047 413.907 56.9935C413.907 51.9266 415.395 48.2848 418.372 46.068C421.412 43.7879 426.448 42.6479 433.478 42.6479C436.328 42.6479 439.02 42.9012 441.553 43.4079C444.15 43.8513 446.05 44.3579 447.253 44.928V56.6135C445.86 55.8534 443.802 55.1884 441.078 54.6184C438.355 53.985 435.568 53.6683 432.718 53.6683C430.311 53.6683 428.601 53.9217 427.588 54.4284C426.638 54.9351 426.163 55.7901 426.163 56.9935C426.163 58.0069 426.479 58.7669 427.113 59.2736C427.746 59.7803 428.759 60.3186 430.153 60.8886L437.373 63.5488C440.54 64.7521 442.978 65.9872 444.688 67.2539C446.462 68.4573 447.729 69.9457 448.489 71.7191C449.249 73.4292 449.629 75.6776 449.629 78.4644C449.629 83.9113 448.14 87.8698 445.163 90.3399C442.187 92.7467 437.436 93.95 430.913 93.95Z" fill="white"/>
</g>
<defs>
<clipPath id="clip0_265_884">
<rect width="553" height="119" rx="10" fill="white"/>
</clipPath>
</defs>
</svg>
